<svg width="18" height="18" viewBox="0 0 18 18" fill="none" xmlns="http://www.w3.org/2000/svg">
<path d="M5.625 3H3.375C2.75368 3 2.25 3.50368 2.25 4.125V6.375C2.25 6.99632 2.75368 7.5 3.375 7.5H5.625C6.24632 7.5 6.75 6.99632 6.75 6.375V4.125C6.75 3.50368 6.24632 3 5.625 3Z" stroke="#0D1218" stroke-width="1.2" stroke-linecap="round" stroke-linejoin="round"/>
<path d="M14.625 10.5H12.375C11.7537 10.5 11.25 11.0037 11.25 11.625V13.875C11.25 14.4963 11.7537 15 12.375 15H14.625C15.2463 15 15.75 14.4963 15.75 13.875V11.625C15.75 11.0037 15.2463 10.5 14.625 10.5Z" stroke="#0D1218" stroke-width="1.2" stroke-linecap="round" stroke-linejoin="round"/>
<path d="M6.75 5.25H9.75C10.1478 5.25 10.5294 5.40804 10.8107 5.68934C11.092 5.97064 11.25 6.35218 11.25 6.75V12.75" stroke="#0D1218" stroke-width="1.2" stroke-linecap="round" stroke-linejoin="round"/>
</svg>
