<svg width="791" height="172" viewBox="0 0 791 172" fill="none" xmlns="http://www.w3.org/2000/svg">
<path d="M9.84567 142V40.1247H43.0748C53.8321 40.1247 63.1764 42.3126 71.1076 46.6885C79.13 50.9732 85.3291 56.9444 89.7049 64.6021C94.0808 72.1687 96.2687 80.966 96.2687 90.994C96.2687 100.931 94.0808 109.774 89.7049 117.523C85.3291 125.18 79.13 131.197 71.1076 135.573C63.1764 139.858 53.8321 142 43.0748 142H9.84567ZM28.443 125.591H43.485C50.4135 125.591 56.3847 124.178 61.3987 121.351C66.5038 118.434 70.4694 114.423 73.2955 109.318C76.1216 104.122 77.5346 98.0136 77.5346 90.994C77.5346 83.8832 76.1216 77.7753 73.2955 72.6701C70.4694 67.5649 66.5038 63.5993 61.3987 60.7733C56.3847 57.9472 50.4135 56.5342 43.485 56.5342H28.443V125.591ZM143.478 143.641C135.82 143.641 129.12 141.909 123.376 138.445C117.633 134.98 113.166 130.285 109.975 124.36C106.785 118.434 105.189 111.87 105.189 104.669C105.189 97.1931 106.785 90.5837 109.975 84.8404C113.257 79.006 117.679 74.4022 123.24 71.0292C128.892 67.6561 135.182 65.9696 142.11 65.9696C147.945 65.9696 153.05 66.9268 157.426 68.8412C161.893 70.7557 165.676 73.3994 168.776 76.7725C171.875 80.1455 174.246 84.02 175.887 88.3958C177.528 92.6805 178.348 97.3299 178.348 102.344C178.348 103.62 178.257 104.942 178.074 106.309C177.983 107.677 177.755 108.862 177.391 109.865H119.958V96.1903H167.272L158.793 102.617C159.614 98.4238 159.386 94.6861 158.11 91.4042C156.925 88.1223 154.919 85.5242 152.093 83.6097C149.358 81.6953 146.03 80.7381 142.11 80.7381C138.373 80.7381 135.045 81.6953 132.128 83.6097C129.211 85.433 126.977 88.1679 125.428 91.8145C123.969 95.3698 123.422 99.7001 123.787 104.805C123.422 109.363 124.014 113.42 125.564 116.976C127.205 120.44 129.575 123.129 132.675 125.044C135.866 126.958 139.512 127.915 143.615 127.915C147.717 127.915 151.181 127.049 154.007 125.317C156.925 123.585 159.204 121.26 160.845 118.343L175.34 125.454C173.881 129.009 171.602 132.154 168.502 134.889C165.403 137.624 161.711 139.766 157.426 141.316C153.232 142.866 148.583 143.641 143.478 143.641ZM190.56 142V38.4838H208.474V142H190.56ZM257.559 142.82C249.172 142.82 242.654 140.541 238.004 135.983C233.446 131.334 231.167 124.816 231.167 116.429V83.6097H218.313V67.6105H219.68C223.327 67.6105 226.153 66.6533 228.159 64.7389C230.164 62.8244 231.167 60.044 231.167 56.3974V50.6541H249.081V67.6105H266.174V83.6097H249.081V115.471C249.081 117.933 249.491 120.03 250.311 121.762C251.223 123.494 252.59 124.816 254.414 125.727C256.328 126.639 258.744 127.095 261.661 127.095C262.299 127.095 263.029 127.049 263.849 126.958C264.761 126.867 265.627 126.776 266.447 126.685V142C265.171 142.182 263.712 142.365 262.071 142.547C260.43 142.729 258.926 142.82 257.559 142.82ZM301.062 143.641C295.866 143.641 291.353 142.775 287.524 141.043C283.695 139.311 280.733 136.849 278.636 133.659C276.539 130.377 275.491 126.593 275.491 122.309C275.491 118.206 276.402 114.56 278.226 111.369C280.049 108.087 282.875 105.352 286.704 103.164C290.533 100.976 295.364 99.4266 301.199 98.515L325.539 94.5494V108.224L304.617 111.779C301.062 112.417 298.418 113.557 296.686 115.198C294.954 116.839 294.088 118.981 294.088 121.625C294.088 124.178 295.045 126.229 296.96 127.778C298.965 129.237 301.427 129.966 304.344 129.966C308.082 129.966 311.363 129.192 314.19 127.642C317.107 126.001 319.34 123.767 320.89 120.941C322.531 118.115 323.351 115.016 323.351 111.643V92.4982C323.351 89.3075 322.075 86.6637 319.523 84.567C317.061 82.379 313.779 81.2851 309.677 81.2851C305.848 81.2851 302.429 82.3334 299.421 84.4302C296.504 86.4358 294.361 89.1251 292.994 92.4982L278.362 85.3874C279.821 81.4674 282.1 78.0943 285.2 75.2683C288.39 72.351 292.128 70.0719 296.413 68.431C300.697 66.7901 305.347 65.9696 310.361 65.9696C316.469 65.9696 321.847 67.1091 326.497 69.3882C331.146 71.5761 334.747 74.6757 337.3 78.6869C339.943 82.6069 341.265 87.2107 341.265 92.4982V142H324.309V129.283L328.138 129.009C326.223 132.2 323.944 134.889 321.3 137.077C318.657 139.174 315.648 140.815 312.275 142C308.902 143.094 305.164 143.641 301.062 143.641ZM428.756 143.641C421.463 143.641 414.717 142.319 408.518 139.675C402.41 137.032 397.032 133.339 392.382 128.599C387.824 123.858 384.269 118.297 381.716 111.916C379.163 105.535 377.887 98.5606 377.887 90.994C377.887 83.4274 379.118 76.4534 381.579 70.0719C384.132 63.5993 387.687 58.0384 392.245 53.389C396.895 48.6485 402.319 45.002 408.518 42.4494C414.717 39.8056 421.463 38.4838 428.756 38.4838C436.05 38.4838 442.568 39.7145 448.311 42.1759C454.146 44.6373 459.068 47.9192 463.08 52.0216C467.091 56.0328 469.962 60.4542 471.695 65.2859L455.012 73.0803C453.097 67.9752 449.861 63.7817 445.303 60.4998C440.744 57.1267 435.229 55.4402 428.756 55.4402C422.375 55.4402 416.723 56.9444 411.8 59.9528C406.968 62.9612 403.185 67.1091 400.45 72.3966C397.806 77.6841 396.485 83.8832 396.485 90.994C396.485 98.1047 397.806 104.349 400.45 109.728C403.185 115.016 406.968 119.164 411.8 122.172C416.723 125.18 422.375 126.685 428.756 126.685C435.229 126.685 440.744 125.044 445.303 121.762C449.861 118.389 453.097 114.15 455.012 109.044L471.695 116.839C469.962 121.671 467.091 126.138 463.08 130.24C459.068 134.251 454.146 137.487 448.311 139.949C442.568 142.41 436.05 143.641 428.756 143.641ZM583.478 142V67.6105H600.298V84.8404L598.384 81.9688C599.751 76.5901 602.486 72.5789 606.588 69.9352C610.691 67.2915 615.522 65.9696 621.083 65.9696C627.191 65.9696 632.57 67.5649 637.219 70.7557C641.869 73.9464 644.877 78.1399 646.245 83.3362L641.185 83.7465C643.464 77.8208 646.883 73.3994 651.441 70.4822C655.999 67.4738 661.241 65.9696 667.167 65.9696C672.454 65.9696 677.149 67.1547 681.251 69.525C685.445 71.8952 688.727 75.2227 691.097 79.5074C693.467 83.7009 694.652 88.5781 694.652 94.1391V142H676.739V98.3782C676.739 95.0963 676.146 92.2703 674.961 89.9C673.776 87.5298 672.135 85.7065 670.038 84.4302C667.942 83.0628 665.389 82.379 662.381 82.379C659.554 82.379 657.047 83.0628 654.86 84.4302C652.672 85.7065 650.985 87.5298 649.8 89.9C648.615 92.2703 648.022 95.0963 648.022 98.3782V142H630.109V98.3782C630.109 95.0963 629.516 92.2703 628.331 89.9C627.146 87.5298 625.459 85.7065 623.271 84.4302C621.175 83.0628 618.668 82.379 615.75 82.379C612.924 82.379 610.417 83.0628 608.229 84.4302C606.041 85.7065 604.355 87.5298 603.17 89.9C601.985 92.2703 601.392 95.0963 601.392 98.3782V142H583.478ZM708.44 169.349V67.6105H725.26V82.379L723.619 78.6869C726.172 74.6757 729.636 71.5761 734.012 69.3882C738.387 67.1091 743.447 65.9696 749.19 65.9696C756.21 65.9696 762.546 67.7017 768.198 71.1659C773.85 74.6301 778.317 79.2795 781.599 85.1139C784.972 90.9484 786.659 97.5122 786.659 104.805C786.659 112.007 785.018 118.571 781.736 124.497C778.454 130.422 773.987 135.117 768.335 138.581C762.683 141.954 756.256 143.641 749.054 143.641C743.675 143.641 738.707 142.593 734.148 140.496C729.681 138.308 726.126 135.208 723.482 131.197L726.354 127.642V169.349H708.44ZM747.002 127.232C751.105 127.232 754.751 126.274 757.942 124.36C761.133 122.445 763.594 119.802 765.326 116.429C767.15 113.056 768.061 109.181 768.061 104.805C768.061 100.429 767.15 96.6005 765.326 93.3187C763.594 89.9456 761.133 87.3019 757.942 85.3874C754.751 83.3818 751.105 82.379 747.002 82.379C743.082 82.379 739.527 83.3362 736.336 85.2507C733.237 87.1651 730.775 89.8544 728.952 93.3187C727.22 96.6917 726.354 100.521 726.354 104.805C726.354 109.181 727.22 113.056 728.952 116.429C730.775 119.802 733.237 122.445 736.336 124.36C739.527 126.274 743.082 127.232 747.002 127.232Z" fill="#F8F8F8"/>
<path d="M473.969 140.788H491.77C492.123 140.788 492.449 140.603 492.63 140.301L524.46 87.1595C524.85 86.5082 525.795 86.5104 526.182 87.1635L557.673 140.297C557.853 140.602 558.181 140.788 558.535 140.788H575.685C576.453 140.788 576.945 139.976 576.565 139.308C562.271 114.218 534.27 65.4468 530.186 59.801C526.019 54.0419 522.2 57.4014 520.811 59.801L473.11 139.271C472.709 139.938 473.19 140.788 473.969 140.788Z" fill="#F8F8F8" stroke="#F8F8F8" stroke-width="2.00398"/>
<path d="M531.317 141.79H519.293C521.745 137.894 524.463 117.467 525.235 110.251C525.207 109.472 525.227 108.831 525.305 108.356C525.529 106.985 525.482 107.941 525.235 110.251C525.473 116.891 529.247 133.503 531.317 141.79Z" fill="#FAD392"/>
<path d="M529.975 141.79H551.871C537.134 130.202 528.121 114.337 525.456 107.853C524.622 126.725 529.627 141.79 529.975 141.79Z" fill="url(#paint0_linear_1086_90)"/>
<path d="M520.15 141.79H498.251C512.989 130.202 522.004 114.337 524.669 107.853C525.503 126.725 520.498 141.79 520.15 141.79Z" fill="url(#paint1_linear_1086_90)"/>
<circle cx="525.304" cy="107.723" r="2.00398" fill="#FC551C"/>
<path d="M547.336 17.2861L547.356 17.2827C547.369 17.285 547.378 17.2949 547.383 17.3127L547.411 18.0231L547.404 18.0514L547.384 18.078L547.211 18.2011L547.191 18.2077L547.166 18.2011L546.993 18.078L546.977 18.0563L546.968 18.0231L546.997 17.311L547.003 17.2944C547.012 17.2833 547.025 17.28 547.043 17.2844L547.161 17.3443L547.185 17.351L547.218 17.3443L547.336 17.2861Z" fill="url(#paint2_linear_1086_90)"/>
<path d="M547.772 17.0981L547.795 17.0948C547.812 17.0981 547.823 17.1103 547.828 17.1314L547.885 18.1528L547.878 18.1761C547.867 18.1906 547.851 18.195 547.83 18.1894L547.496 18.0364L547.482 18.0231L547.474 18.0031L547.444 17.2877L547.449 17.2694L547.466 17.2528L547.772 17.0981Z" fill="url(#paint3_linear_1086_90)"/>
<path d="M546.581 17.0941C546.59 17.0922 546.598 17.0936 546.606 17.0981L546.912 17.2511L546.928 17.2678L546.933 17.2877L546.903 18.0031L546.898 18.0214L546.882 18.0347L546.547 18.1894L546.522 18.1928C546.505 18.1861 546.495 18.1728 546.494 18.1528L546.551 17.1314L546.561 17.1081C546.565 17.1009 546.573 17.0959 546.581 17.0941Z" fill="url(#paint4_linear_1086_90)"/>
<path d="M541.555 26.0805C542.55 23.1691 546.573 23.081 547.752 25.816L547.852 26.0822L549.194 30.0085C549.502 30.9089 549.999 31.7329 550.653 32.4248C551.306 33.1167 552.1 33.6605 552.981 34.0195L553.342 34.1543L557.268 35.4952C560.18 36.4901 560.268 40.5128 557.534 41.6923L557.268 41.7922L553.342 43.1347C552.441 43.4422 551.617 43.9393 550.925 44.5925C550.232 45.2457 549.688 46.0398 549.329 46.9212L549.194 47.2806L547.854 51.2085C546.859 54.1199 542.836 54.2081 541.658 51.4747L541.555 51.2085L540.214 47.2823C539.907 46.3815 539.409 45.5572 538.756 44.865C538.103 44.1727 537.309 43.6287 536.427 43.2695L536.068 43.1347L532.142 41.7938C529.229 40.799 529.141 36.7762 531.876 35.5984L532.142 35.4952L536.068 34.1543C536.969 33.8466 537.793 33.3494 538.484 32.6962C539.176 32.043 539.72 31.249 540.079 30.3678L540.214 30.0085L541.555 26.0805ZM558.014 20.3442C558.325 20.3442 558.63 20.4315 558.894 20.5962C559.158 20.7609 559.371 20.9964 559.507 21.2759L559.587 21.4705L560.17 23.1775L561.878 23.7597C562.19 23.8657 562.464 24.0619 562.664 24.3234C562.864 24.5849 562.982 24.9 563.003 25.2288C563.024 25.5575 562.947 25.8851 562.782 26.17C562.617 26.4549 562.37 26.6844 562.075 26.8292L561.878 26.909L560.171 27.4913L559.589 29.1999C559.483 29.5117 559.287 29.785 559.025 29.9851C558.763 30.1853 558.448 30.3032 558.119 30.3241C557.791 30.3449 557.463 30.2677 557.178 30.1022C556.894 29.9368 556.664 29.6905 556.52 29.3946L556.44 29.1999L555.857 27.493L554.149 26.9107C553.837 26.8047 553.563 26.6086 553.363 26.347C553.163 26.0855 553.045 25.7704 553.024 25.4417C553.003 25.1129 553.08 24.7853 553.245 24.5004C553.41 24.2155 553.657 23.9861 553.953 23.8413L554.149 23.7614L555.856 23.1791L556.438 21.4705C556.55 21.1418 556.762 20.8565 557.045 20.6545C557.328 20.4525 557.666 20.344 558.014 20.3442Z" fill="url(#paint5_linear_1086_90)"/>
<defs>
<linearGradient id="paint0_linear_1086_90" x1="538.617" y1="107.853" x2="538.617" y2="141.79" gradientUnits="userSpaceOnUse">
<stop stop-color="#FFB64D"/>
<stop offset="1" stop-color="#EA7005"/>
</linearGradient>
<linearGradient id="paint1_linear_1086_90" x1="511.507" y1="107.853" x2="511.507" y2="141.79" gradientUnits="userSpaceOnUse">
<stop stop-color="#FB4D18"/>
<stop offset="1" stop-color="#FD7E2D"/>
</linearGradient>
<linearGradient id="paint2_linear_1086_90" x1="546.808" y1="17.4049" x2="547.596" y2="18.325" gradientUnits="userSpaceOnUse">
<stop stop-color="#FF8C60"/>
<stop offset="1" stop-color="#FA4A07"/>
</linearGradient>
<linearGradient id="paint3_linear_1086_90" x1="546.808" y1="17.4049" x2="547.596" y2="18.325" gradientUnits="userSpaceOnUse">
<stop stop-color="#FF8C60"/>
<stop offset="1" stop-color="#FA4A07"/>
</linearGradient>
<linearGradient id="paint4_linear_1086_90" x1="546.808" y1="17.4049" x2="547.596" y2="18.325" gradientUnits="userSpaceOnUse">
<stop stop-color="#FF8C60"/>
<stop offset="1" stop-color="#FA4A07"/>
</linearGradient>
<linearGradient id="paint5_linear_1086_90" x1="537.367" y1="29.6055" x2="561.003" y2="51.7304" gradientUnits="userSpaceOnUse">
<stop stop-color="#FF8C60"/>
<stop offset="1" stop-color="#FA4A07"/>
</linearGradient>
</defs>
</svg>
