<svg width="791" height="177" viewBox="0 0 791 177" fill="none" xmlns="http://www.w3.org/2000/svg">
<path d="M9.84567 146.648V44.7731H43.0748C53.8321 44.7731 63.1764 46.9611 71.1076 51.3369C79.13 55.6216 85.3291 61.5928 89.7049 69.2506C94.0808 76.8171 96.2687 85.6144 96.2687 95.6424C96.2687 105.579 94.0808 114.422 89.7049 122.171C85.3291 129.829 79.13 135.846 71.1076 140.221C63.1764 144.506 53.8321 146.648 43.0748 146.648H9.84567ZM28.443 130.239H43.485C50.4135 130.239 56.3847 128.826 61.3987 126C66.5038 123.083 70.4694 119.071 73.2955 113.966C76.1216 108.77 77.5346 102.662 77.5346 95.6424C77.5346 88.5317 76.1216 82.4237 73.2955 77.3185C70.4694 72.2134 66.5038 68.2478 61.3987 65.4217C56.3847 62.5956 50.4135 61.1826 43.485 61.1826H28.443V130.239ZM143.478 148.289C135.82 148.289 129.12 146.557 123.376 143.093C117.633 139.629 113.166 134.934 109.975 129.008C106.785 123.083 105.189 116.519 105.189 109.317C105.189 101.842 106.785 95.2322 109.975 89.4889C113.257 83.6544 117.679 79.0507 123.24 75.6776C128.892 72.3045 135.182 70.618 142.11 70.618C147.945 70.618 153.05 71.5752 157.426 73.4897C161.893 75.4041 165.676 78.0479 168.776 81.4209C171.875 84.794 174.246 88.6684 175.887 93.0443C177.528 97.3289 178.348 101.978 178.348 106.992C178.348 108.269 178.257 109.59 178.074 110.958C177.983 112.325 177.755 113.51 177.391 114.513H119.958V100.839H167.272L158.793 107.266C159.614 103.072 159.386 99.3345 158.11 96.0527C156.925 92.7708 154.919 90.1726 152.093 88.2582C149.358 86.3437 146.03 85.3865 142.11 85.3865C138.373 85.3865 135.045 86.3437 132.128 88.2582C129.211 90.0814 126.977 92.8164 125.428 96.4629C123.969 100.018 123.422 104.349 123.787 109.454C123.422 114.012 124.014 118.069 125.564 121.624C127.205 125.088 129.575 127.778 132.675 129.692C135.866 131.606 139.512 132.564 143.615 132.564C147.717 132.564 151.181 131.698 154.007 129.966C156.925 128.233 159.204 125.909 160.845 122.991L175.34 130.102C173.881 133.658 171.602 136.803 168.502 139.538C165.403 142.273 161.711 144.415 157.426 145.965C153.232 147.514 148.583 148.289 143.478 148.289ZM190.56 146.648V43.1322H208.474V146.648H190.56ZM257.559 147.469C249.172 147.469 242.654 145.19 238.004 140.632C233.446 135.982 231.167 129.464 231.167 121.077V88.2582H218.313V72.259H219.68C223.327 72.259 226.153 71.3017 228.159 69.3873C230.164 67.4729 231.167 64.6924 231.167 61.0458V55.3025H249.081V72.259H266.174V88.2582H249.081V120.12C249.081 122.581 249.491 124.678 250.311 126.41C251.223 128.142 252.59 129.464 254.414 130.376C256.328 131.287 258.744 131.743 261.661 131.743C262.299 131.743 263.029 131.698 263.849 131.606C264.761 131.515 265.627 131.424 266.447 131.333V146.648C265.171 146.831 263.712 147.013 262.071 147.195C260.43 147.378 258.926 147.469 257.559 147.469ZM301.062 148.289C295.866 148.289 291.353 147.423 287.524 145.691C283.695 143.959 280.733 141.498 278.636 138.307C276.539 135.025 275.491 131.242 275.491 126.957C275.491 122.855 276.402 119.208 278.226 116.017C280.049 112.736 282.875 110.001 286.704 107.813C290.533 105.625 295.364 104.075 301.199 103.163L325.539 99.1978V112.872L304.617 116.428C301.062 117.066 298.418 118.205 296.686 119.846C294.954 121.487 294.088 123.63 294.088 126.273C294.088 128.826 295.045 130.877 296.96 132.427C298.965 133.886 301.427 134.615 304.344 134.615C308.082 134.615 311.363 133.84 314.19 132.29C317.107 130.649 319.34 128.416 320.89 125.59C322.531 122.764 323.351 119.664 323.351 116.291V97.1466C323.351 93.9559 322.075 91.3122 319.523 89.2154C317.061 87.0275 313.779 85.9335 309.677 85.9335C305.848 85.9335 302.429 86.9819 299.421 89.0786C296.504 91.0842 294.361 93.7736 292.994 97.1466L278.362 90.0359C279.821 86.1158 282.1 82.7428 285.2 79.9167C288.39 76.9995 292.128 74.7204 296.413 73.0794C300.697 71.4385 305.347 70.618 310.361 70.618C316.469 70.618 321.847 71.7576 326.497 74.0367C331.146 76.2246 334.747 79.3241 337.3 83.3353C339.943 87.2554 341.265 91.8591 341.265 97.1466V146.648H324.309V133.931L328.138 133.658C326.223 136.848 323.944 139.538 321.3 141.726C318.657 143.822 315.648 145.463 312.275 146.648C308.902 147.742 305.164 148.289 301.062 148.289ZM428.756 148.289C421.463 148.289 414.717 146.968 408.518 144.324C402.41 141.68 397.032 137.988 392.382 133.247C387.824 128.507 384.269 122.946 381.716 116.564C379.163 110.183 377.887 103.209 377.887 95.6424C377.887 88.0758 379.118 81.1018 381.579 74.7204C384.132 68.2478 387.687 62.6868 392.245 58.0375C396.895 53.2969 402.319 49.6504 408.518 47.0978C414.717 44.4541 421.463 43.1322 428.756 43.1322C436.05 43.1322 442.568 44.3629 448.311 46.8243C454.146 49.2857 459.068 52.5676 463.08 56.67C467.091 60.6812 469.962 65.1026 471.695 69.9343L455.012 77.7288C453.097 72.6236 449.861 68.4301 445.303 65.1482C440.744 61.7752 435.229 60.0886 428.756 60.0886C422.375 60.0886 416.723 61.5928 411.8 64.6012C406.968 67.6096 403.185 71.7576 400.45 77.0451C397.806 82.3325 396.485 88.5317 396.485 95.6424C396.485 102.753 397.806 108.998 400.45 114.377C403.185 119.664 406.968 123.812 411.8 126.82C416.723 129.829 422.375 131.333 428.756 131.333C435.229 131.333 440.744 129.692 445.303 126.41C449.861 123.037 453.097 118.798 455.012 113.693L471.695 121.487C469.962 126.319 467.091 130.786 463.08 134.888C459.068 138.9 454.146 142.136 448.311 144.597C442.568 147.059 436.05 148.289 428.756 148.289ZM583.478 146.648V72.259H600.298V89.4889L598.384 86.6172C599.751 81.2386 602.486 77.2274 606.588 74.5836C610.691 71.9399 615.522 70.618 621.083 70.618C627.191 70.618 632.57 72.2134 637.219 75.4041C641.869 78.5948 644.877 82.7884 646.245 87.9847L641.185 88.3949C643.464 82.4693 646.883 78.0479 651.441 75.1306C655.999 72.1222 661.241 70.618 667.167 70.618C672.454 70.618 677.149 71.8031 681.251 74.1734C685.445 76.5437 688.727 79.8711 691.097 84.1558C693.467 88.3493 694.652 93.2266 694.652 98.7876V146.648H676.739V103.027C676.739 99.7448 676.146 96.9187 674.961 94.5485C673.776 92.1782 672.135 90.3549 670.038 89.0786C667.942 87.7112 665.389 87.0275 662.381 87.0275C659.554 87.0275 657.047 87.7112 654.86 89.0786C652.672 90.3549 650.985 92.1782 649.8 94.5485C648.615 96.9187 648.022 99.7448 648.022 103.027V146.648H630.109V103.027C630.109 99.7448 629.516 96.9187 628.331 94.5485C627.146 92.1782 625.459 90.3549 623.271 89.0786C621.175 87.7112 618.668 87.0275 615.75 87.0275C612.924 87.0275 610.417 87.7112 608.229 89.0786C606.041 90.3549 604.355 92.1782 603.17 94.5485C601.985 96.9187 601.392 99.7448 601.392 103.027V146.648H583.478ZM708.44 173.998V72.259H725.26V87.0275L723.619 83.3353C726.172 79.3241 729.636 76.2246 734.012 74.0367C738.387 71.7576 743.447 70.618 749.19 70.618C756.21 70.618 762.546 72.3501 768.198 75.8143C773.85 79.2786 778.317 83.9279 781.599 89.7624C784.972 95.5968 786.659 102.161 786.659 109.454C786.659 116.656 785.018 123.219 781.736 129.145C778.454 135.071 773.987 139.766 768.335 143.23C762.683 146.603 756.256 148.289 749.054 148.289C743.675 148.289 738.707 147.241 734.148 145.144C729.681 142.956 726.126 139.857 723.482 135.846L726.354 132.29V173.998H708.44ZM747.002 131.88C751.105 131.88 754.751 130.923 757.942 129.008C761.133 127.094 763.594 124.45 765.326 121.077C767.15 117.704 768.061 113.83 768.061 109.454C768.061 105.078 767.15 101.249 765.326 97.9671C763.594 94.594 761.133 91.9503 757.942 90.0359C754.751 88.0303 751.105 87.0275 747.002 87.0275C743.082 87.0275 739.527 87.9847 736.336 89.8991C733.237 91.8136 730.775 94.5029 728.952 97.9671C727.22 101.34 726.354 105.169 726.354 109.454C726.354 113.83 727.22 117.704 728.952 121.077C730.775 124.45 733.237 127.094 736.336 129.008C739.527 130.923 743.082 131.88 747.002 131.88Z" fill="#F8F8F8"/>
<path d="M473.969 145.437H491.77C492.123 145.437 492.449 145.252 492.63 144.95L524.46 91.8079C524.85 91.1566 525.795 91.1588 526.182 91.8119L557.673 144.946C557.853 145.25 558.181 145.437 558.535 145.437H575.685C576.453 145.437 576.945 144.624 576.565 143.956C562.271 118.867 534.27 70.0953 530.186 64.4494C526.019 58.6903 522.2 62.0498 520.811 64.4494L473.11 143.919C472.709 144.587 473.19 145.437 473.969 145.437Z" fill="url(#paint0_linear_1092_13)"/>
<path d="M531.317 146.439H519.293C521.745 142.542 524.463 122.115 525.235 114.899C525.207 114.121 525.227 113.48 525.305 113.005C525.529 111.633 525.482 112.589 525.235 114.899C525.473 121.539 529.247 138.151 531.317 146.439Z" fill="#FF7141"/>
<path d="M529.975 146.439H551.871C537.134 134.851 528.121 118.986 525.456 112.502C524.622 131.374 529.627 146.439 529.975 146.439Z" fill="url(#paint1_linear_1092_13)"/>
<path d="M520.15 146.439H498.251C512.989 134.851 522.004 118.986 524.669 112.502C525.503 131.374 520.498 146.439 520.15 146.439Z" fill="url(#paint2_linear_1092_13)"/>
<circle cx="525.304" cy="112.371" r="2.00398" fill="#FC551C"/>
<path d="M550.359 10.0654C552.105 4.95678 559.163 4.80206 561.233 9.6012L561.408 10.0683L563.764 16.9575C564.304 18.5375 565.176 19.9833 566.322 21.1974C567.469 22.4116 568.862 23.3658 570.408 23.9957L571.042 24.2322L577.931 26.585C583.039 28.3307 583.194 35.3893 578.398 37.459L577.931 37.6341L571.042 39.9899C569.461 40.5294 568.015 41.4017 566.8 42.5479C565.585 43.694 564.631 45.0874 564 46.634L563.764 47.2645L561.411 54.1567C559.665 59.2653 552.607 59.42 550.54 54.6238L550.359 54.1567L548.006 47.2674C547.467 45.6869 546.594 44.2406 545.448 43.0259C544.302 41.8113 542.909 40.8566 541.362 40.2264L540.732 39.9899L533.842 37.6371C528.731 35.8914 528.576 28.8328 533.375 26.766L533.842 26.585L540.732 24.2322C542.312 23.6923 543.757 22.8198 544.972 21.6737C546.186 20.5276 547.14 19.1344 547.77 17.5881L548.006 16.9575L550.359 10.0654ZM579.239 5.2746e-07C579.785 -6.88846e-07 580.32 0.153194 580.783 0.442174C581.247 0.731153 581.62 1.14433 581.86 1.63474L582 1.97629L583.022 4.97137L586.02 5.99309C586.567 6.17903 587.047 6.52326 587.398 6.98215C587.75 7.44105 587.957 7.99395 587.994 8.57079C588.031 9.14763 587.896 9.72244 587.606 10.2224C587.315 10.7223 586.883 11.1248 586.364 11.379L586.02 11.5191L583.025 12.5408L582.003 15.5388C581.817 16.086 581.472 16.5655 581.013 16.9167C580.554 17.2678 580.001 17.4748 579.424 17.5114C578.848 17.548 578.273 17.4125 577.773 17.1221C577.273 16.8318 576.871 16.3996 576.617 15.8804L576.477 15.5388L575.455 12.5437L572.457 11.522C571.91 11.3361 571.43 10.9919 571.079 10.533C570.727 10.0741 570.52 9.52116 570.483 8.94432C570.446 8.36748 570.581 7.79268 570.872 7.29275C571.162 6.79282 571.594 6.39027 572.113 6.13613L572.457 5.99601L575.452 4.97429L576.474 1.97629C576.671 1.39953 577.043 0.898842 577.539 0.544425C578.035 0.190007 578.629 -0.00036572 579.239 5.2746e-07Z" fill="url(#paint3_linear_1092_13)"/>
<defs>
<linearGradient id="paint0_linear_1092_13" x1="524.804" y1="61.2695" x2="524.804" y2="145.437" gradientUnits="userSpaceOnUse">
<stop stop-color="#FFA683"/>
<stop offset="1" stop-color="#E64F16"/>
</linearGradient>
<linearGradient id="paint1_linear_1092_13" x1="538.617" y1="112.502" x2="538.617" y2="146.439" gradientUnits="userSpaceOnUse">
<stop stop-color="white"/>
<stop offset="1" stop-color="#FFC3AE"/>
</linearGradient>
<linearGradient id="paint2_linear_1092_13" x1="511.507" y1="112.502" x2="508.5" y2="153.001" gradientUnits="userSpaceOnUse">
<stop stop-color="#FFBBA7"/>
<stop offset="1" stop-color="white"/>
</linearGradient>
<linearGradient id="paint3_linear_1092_13" x1="543.011" y1="16.2505" x2="584.485" y2="55.0725" gradientUnits="userSpaceOnUse">
<stop stop-color="#FF8C60"/>
<stop offset="1" stop-color="#FA4A07"/>
</linearGradient>
</defs>
</svg>
