<svg width="18" height="18" viewBox="0 0 18 18" fill="none" xmlns="http://www.w3.org/2000/svg">
<path d="M15.75 9.00008C15.7509 10.032 15.4857 11.0467 14.9799 11.9462C14.4741 12.8456 13.7449 13.5994 12.8627 14.1348C11.9805 14.6701 10.9752 14.9689 9.94383 15.0022C8.91245 15.0356 7.88991 14.8023 6.975 14.3251L3 15.7501L4.425 11.7751C4.00632 10.9687 3.77625 10.0778 3.75212 9.16955C3.728 8.26129 3.91047 7.35942 4.28575 6.53197C4.66104 5.70452 5.21934 4.97311 5.91854 4.39291C6.61774 3.81271 7.43958 3.39889 8.32205 3.18265C9.20452 2.96642 10.1246 2.95342 11.0128 3.14465C11.901 3.33587 12.7342 3.72632 13.4495 4.28654C14.1648 4.84676 14.7436 5.56211 15.1421 6.37863C15.5406 7.19515 15.7485 8.09151 15.75 9.00008Z" stroke="#0D1218" stroke-width="1.2" stroke-linecap="round" stroke-linejoin="round"/>
</svg>
